<svg xmlns="http://www.w3.org/2000/svg" width="1440" height="429" viewBox="0 0 1440 429"><path d="M1352.6038,438a11.89,11.89,0,1,1-22.5655,0H1234V372H1029v64H823V316H617v67H411V333H206V292H0V721H1440V438ZM96.8441,334.7707a12.22,12.22,0,1,1,12.22-12.22A12.22,12.22,0,0,1,96.8441,334.7707ZM304.5872,375.523a12.22,12.22,0,1,1,12.22-12.22A12.22,12.22,0,0,1,304.5872,375.523Zm210.3853,50a12.22,12.22,0,1,1,12.22-12.22A12.22,12.22,0,0,1,514.9725,425.523ZM720.578,359.1652a12.22,12.22,0,1,1,12.22-12.22A12.22,12.22,0,0,1,720.578,359.1652ZM925.1743,478.0643a12.22,12.22,0,1,1,12.22-12.22A12.22,12.22,0,0,1,925.1743,478.0643Zm207.4129-62.4312a12.22,12.22,0,1,1,12.22-12.22A12.22,12.22,0,0,1,1132.5872,415.6331Z" transform="translate(0 -292)" style="fill:#0075ff"/><path d="M1341.321,429.8441A11.8884,11.8884,0,0,0,1330.0383,438h22.5655A11.8884,11.8884,0,0,0,1341.321,429.8441Z" transform="translate(0 -292)" style="fill:#0075ff"/><path d="M0,470H411v34H617V421H823v49h206v31h205V410h206V721H0Z" transform="translate(0 -292)" style="fill:#0046d5"/><path d="M0,640H206V539H411v65H617V530H823v58h206V573h205v32h206V721H0Z" transform="translate(0 -292)" style="fill:#0010a8"/><circle cx="96.8441" cy="212.5184" r="11.8899" style="fill:#0075ff"/><circle cx="304.5872" cy="212.5184" r="11.8899" style="fill:#0075ff"/><circle cx="514.9725" cy="245.8441" r="11.8899" style="fill:#0075ff"/><circle cx="720.578" cy="161.6239" r="11.8899" style="fill:#0075ff"/><circle cx="925.1743" cy="213.6835" r="11.8899" style="fill:#0075ff"/><circle cx="1132.5872" cy="241.3028" r="11.8899" style="fill:#0075ff"/><circle cx="304.5872" cy="279.7799" r="12.055" style="fill:#0046d5"/><circle cx="96.8441" cy="381.2569" r="12.055" style="fill:#0046d5"/><circle cx="514.9725" cy="345.5872" r="12.055" style="fill:#0046d5"/><circle cx="720.9358" cy="269.789" r="12.055" style="fill:#0046d5"/><circle cx="925.1743" cy="333.5322" r="12.055" style="fill:#0046d5"/><circle cx="1132.5872" cy="317.8441" r="12.055" style="fill:#0046d5"/><circle cx="1341.321" cy="345.5872" r="12.055" style="fill:#0046d5"/><circle cx="1341.321" cy="149.734" r="11.8899" style="fill:#0075ff"/></svg>