<svg xmlns="http://www.w3.org/2000/svg" width="1440" height="721" viewBox="0 0 1440 721"><rect width="1440" height="720" style="fill:#0084ff"/><path d="M0,292H206v41H411v50H617V316H823V436h206V372h205v66h206V721H0Z" style="fill:#0075ff"/><circle cx="925.1743" cy="465.8441" r="12.2202" style="fill:#0084ff"/><path d="M0,470H411v34H617V421H823v49h206v31h205V410h206V721H0Z" style="fill:#0046d5"/><path d="M0,640H206V539H411v65H617V530H823v58h206V573h205v32h206V721H0Z" style="fill:#0010a8"/><circle cx="304.5872" cy="363.3028" r="12.2202" style="fill:#0084ff"/><circle cx="96.8441" cy="322.5505" r="12.2202" style="fill:#0084ff"/><circle cx="514.9725" cy="413.3028" r="12.2202" style="fill:#0084ff"/><circle cx="720.578" cy="346.945" r="12.2202" style="fill:#0084ff"/><circle cx="1132.5872" cy="403.4129" r="12.2202" style="fill:#0084ff"/><circle cx="96.8441" cy="504.5184" r="11.8899" style="fill:#0075ff"/><circle cx="304.5872" cy="504.5184" r="11.8899" style="fill:#0075ff"/><circle cx="514.9725" cy="537.8441" r="11.8899" style="fill:#0075ff"/><circle cx="720.578" cy="453.6239" r="11.8899" style="fill:#0075ff"/><circle cx="925.1743" cy="505.6835" r="11.8899" style="fill:#0075ff"/><circle cx="1132.5872" cy="533.3028" r="11.8899" style="fill:#0075ff"/><circle cx="1341.321" cy="441.734" r="11.8899" style="fill:#0075ff"/><circle cx="304.5872" cy="571.7799" r="12.055" style="fill:#0046d5"/><circle cx="96.8441" cy="673.2569" r="12.055" style="fill:#0046d5"/><circle cx="514.9725" cy="637.5872" r="12.055" style="fill:#0046d5"/><circle cx="720.9358" cy="561.789" r="12.055" style="fill:#0046d5"/><circle cx="925.1743" cy="625.5322" r="12.055" style="fill:#0046d5"/><circle cx="1132.5872" cy="609.8441" r="12.055" style="fill:#0046d5"/><circle cx="1341.321" cy="637.5872" r="12.055" style="fill:#0046d5"/></svg>