<?xml version="1.0" encoding="utf-8"?>
<!DOCTYPE svg PUBLIC "-//W3C//DTD SVG 20010904//EN" "http://www.w3.org/TR/2001/REC-SVG-20010904/DTD/svg10.dtd">
<svg version="1.0" xmlns="http://www.w3.org/2000/svg" width="1341px" height="470px" viewBox="0 0 1341 470" preserveAspectRatio="xMidYMid meet">
 <g fill="#ffffff">
  <path d="M1014 424 l0 -34 6.5 0 6.5 0 0 3 c0 1.7 0.2 3 0.5 3 0.3 0 1.8 -1.5 3.4 -3.2 2.6 -3 3.5 -3.3 8.5 -3.3 4.7 0 5.9 0.4 8.6 3 4.3 4.1 5.7 7.1 7 15 2 12.8 -1.6 26.9 -8.1 31.8 -4.1 3 -11.1 3.4 -15.4 0.9 l-3.5 -2.1 0 9.9 0 10 -7 0 -7 0 0 -34z m24.7 5.3 c2.6 -3.9 2.6 -23.7 0 -27.6 -2.1 -3.3 -5.6 -3.5 -8.3 -0.6 -1.7 1.8 -1.9 3.7 -1.9 15.1 0 11.7 0.2 13.1 1.9 14.4 3.1 2.2 6.4 1.7 8.3 -1.3z"/>
  <path d="M572.9 440.7 c-2 -0.8 -5 -2.3 -6.6 -3.5 -3.3 -2.3 -8.7 -11.6 -8 -13.6 0.3 -0.7 2.5 -1.8 5 -2.4 2.4 -0.7 5.1 -1.4 5.9 -1.7 0.9 -0.4 2 0.8 3.2 3.5 1.2 2.7 2.9 4.7 5.1 5.7 8.4 4 16.9 -3.4 12 -10.4 -0.8 -1.1 -5.3 -3.6 -10.1 -5.4 -14.1 -5.6 -18.6 -10.6 -18.6 -20.9 0 -13.7 9.8 -22 24.5 -20.7 7.3 0.7 12.5 3.4 15.9 8.3 4.4 6.4 4.1 7.4 -2.7 10.1 -3.3 1.3 -6.1 2 -6.2 1.6 -0.2 -0.5 -1.2 -2.2 -2.3 -4 -3.4 -5.7 -12.6 -5.3 -14.5 0.6 -1.1 3.6 1.5 6.2 9.3 9.7 16.9 7.5 20.3 10.8 21 20.3 0.7 10 -3 17.1 -11.2 21.3 -5.1 2.6 -16.5 3.4 -21.7 1.5z"/>
  <path d="M624.5 441 c-1.1 -0.4 -3.1 -2 -4.4 -3.4 -3 -3.2 -3.9 -8.9 -4 -24.8 l-0.1 -11.8 -2.5 0 c-2.4 0 -2.5 -0.3 -2.5 -5.5 0 -5.2 0.1 -5.5 2.5 -5.5 2.3 0 2.4 -0.3 2.7 -7.7 l0.3 -7.8 6.8 -0.3 6.7 -0.3 0 8.1 0 8 5 0 5 0 0 5.5 0 5.5 -5 0 -5 0 0 11.8 c0 14.1 0.9 16.6 6.3 17 l3.7 0.3 0 5.4 c0 3.9 -0.4 5.4 -1.6 5.9 -2.2 0.9 -11.5 0.6 -13.9 -0.4z"/>
  <path d="M682.1 440.9 c-4.6 -1.8 -7.9 -4.9 -10.2 -9.6 -3.1 -6.4 -3.4 -22.2 -0.6 -29.5 2.1 -5.4 6.9 -10.1 12.3 -11.8 4.9 -1.6 13.5 -0.7 17.8 2 3.9 2.4 7.6 9.1 7.6 13.8 l0 3.2 -6.5 0 c-6.1 0 -6.5 -0.1 -6.5 -2.3 0 -5.7 -5.9 -8.7 -9.5 -4.7 -4.2 4.7 -4.2 20.9 0 25.8 2 2.3 2.7 2.5 5.1 1.7 2.2 -0.8 3.1 -2 3.8 -4.8 0.9 -3.3 1.3 -3.7 4 -3.6 1.7 0 4.7 0.3 6.7 0.7 l3.6 0.7 -1.2 4.8 c-1.6 6.4 -4.2 9.7 -9.5 12.5 -4.7 2.3 -12.5 2.9 -16.9 1.1z"/>
  <path d="M774.5 440.1 c-8.8 -3.9 -13.2 -13.7 -12.2 -27.1 0.8 -11.7 4.7 -18.7 12.1 -22.1 8.1 -3.7 18.4 -1.5 23.9 5 2.9 3.5 4.2 7.5 5.2 16.4 l0.7 5.7 -13.6 0 -13.6 0 0 4.4 c0 8 6.3 12.3 11 7.6 1.1 -1.1 2.2 -3.1 2.6 -4.5 0.5 -2.1 1.2 -2.5 4.3 -2.4 2 0.1 4.8 0.4 6.3 0.8 2.6 0.6 2.6 0.6 1.3 4.5 -2 5.8 -4.6 8.8 -9.5 11.4 -5.5 2.7 -12.9 2.9 -18.5 0.3z m15.5 -33.6 c0 -6.3 -6.5 -9.9 -10.4 -5.6 -0.9 1 -2 3.5 -2.3 5.5 l-0.6 3.6 6.7 0 6.6 0 0 -3.5z"/>
  <path d="M874.9 440.7 c-2 -0.8 -5 -2.3 -6.6 -3.5 -3.3 -2.3 -8.7 -11.6 -8 -13.6 0.3 -0.7 2.5 -1.8 5 -2.4 2.4 -0.7 5.1 -1.4 5.9 -1.7 0.9 -0.4 2 0.8 3.2 3.5 1.2 2.7 2.9 4.7 5.1 5.7 8.4 4 16.9 -3.4 12 -10.4 -0.8 -1.1 -5.3 -3.6 -10.1 -5.4 -14.1 -5.6 -18.6 -10.6 -18.6 -20.9 0 -13.7 9.8 -22 24.5 -20.7 7.3 0.7 12.5 3.4 15.9 8.3 4.4 6.4 4.1 7.4 -2.7 10.1 -3.3 1.3 -6.1 2 -6.2 1.6 -0.2 -0.5 -1.2 -2.2 -2.3 -4 -3.4 -5.7 -12.6 -5.3 -14.5 0.6 -1.1 3.6 1.5 6.2 9.3 9.7 16.9 7.5 20.3 10.8 21 20.3 0.7 10 -3 17.1 -11.2 21.3 -5.1 2.6 -16.5 3.4 -21.7 1.5z"/>
  <path d="M977.8 441.1 c-4.8 -1.6 -8.5 -4.9 -10.9 -9.8 -2 -4.1 -2.4 -6.3 -2.4 -15.8 0 -9.6 0.3 -11.6 2.4 -15.8 1.5 -3 3.8 -5.8 6.4 -7.5 3.5 -2.3 5.1 -2.7 11.6 -2.7 10 0 14.2 2.4 18 10.4 2.2 4.9 2.6 6.9 2.6 15.6 0 8.7 -0.4 10.7 -2.6 15.6 -3.4 7.2 -7.7 10 -16.2 10.5 -3.4 0.2 -7.4 0 -8.9 -0.5z m10.8 -11.2 c1.7 -1.8 1.9 -3.7 1.9 -14.5 0 -11.3 -0.2 -12.5 -2.2 -14.5 -3.2 -3.2 -6.9 -2 -8.2 2.9 -1.4 4.7 -1.4 18.6 -0.1 23.1 1.5 5.5 5.2 6.7 8.6 3z"/>
  <path d="M1101.1 440.9 c-4.6 -1.8 -7.9 -4.9 -10.2 -9.6 -3.1 -6.4 -3.4 -22.2 -0.6 -29.5 2.1 -5.4 6.9 -10.1 12.3 -11.8 4.9 -1.6 13.5 -0.7 17.8 2 3.9 2.4 7.6 9.1 7.6 13.8 l0 3.2 -6.5 0 c-6.1 0 -6.5 -0.1 -6.5 -2.3 0 -6.5 -6.5 -8.7 -10.4 -3.4 -1.7 2.3 -2 4.2 -2 11.8 0.1 7.4 0.4 9.5 2.1 11.7 3.7 5.1 8.7 3.8 9.9 -2.4 0.6 -3 1 -3.4 3.8 -3.3 1.7 0 4.7 0.3 6.7 0.7 l3.6 0.7 -1.2 4.8 c-1.6 6.4 -4.2 9.7 -9.5 12.5 -4.7 2.3 -12.5 2.9 -16.9 1.1z"/>
  <path d="M1147.8 441.1 c-4.8 -1.6 -8.5 -4.9 -10.9 -9.8 -2 -4.1 -2.4 -6.3 -2.4 -15.8 0 -9.6 0.3 -11.6 2.4 -15.8 1.5 -3 3.8 -5.8 6.4 -7.5 3.5 -2.3 5.1 -2.7 11.6 -2.7 10 0 14.2 2.4 18 10.4 2.2 4.9 2.6 6.9 2.6 15.6 0 8.7 -0.4 10.7 -2.6 15.6 -3.4 7.2 -7.7 10 -16.2 10.5 -3.4 0.2 -7.4 0 -8.9 -0.5z m10.8 -11.2 c1.7 -1.8 1.9 -3.7 1.9 -14.5 0 -11.3 -0.2 -12.5 -2.2 -14.5 -3.2 -3.2 -6.9 -2 -8.2 2.9 -1.4 4.7 -1.4 18.6 -0.1 23.1 1.5 5.5 5.2 6.7 8.6 3z"/>
  <path d="M646 415.5 l0 -25.5 7.5 0 7.5 0 0 25.5 0 25.5 -7.5 0 -7.5 0 0 -25.5z"/>
  <path d="M717 406.5 l0 -34.5 7.5 0 7.5 0 0.2 18.2 0.3 18.2 6.7 -9.2 6.8 -9.2 6.5 0 6.6 0 -6.5 8.6 -6.5 8.5 4.1 9.7 c2.2 5.3 5.3 12.8 6.9 16.6 1.6 3.7 2.9 7 2.9 7.2 0 0.3 -3.4 0.4 -7.7 0.2 l-7.6 -0.3 -1.3 -4 c-0.8 -2.2 -2.6 -7.3 -4 -11.3 l-2.7 -7.4 -2.3 2.9 c-2 2.4 -2.3 3.9 -2.4 11.6 l0 8.7 -7.5 0 -7.5 0 0 -34.5z"/>
  <path d="M811 415.5 l0 -25.5 6.5 0 6.5 0 0 5.3 0 5.2 2.1 -4.3 c2.2 -4.3 6.1 -7.2 9.9 -7.2 1.8 0 2 0.6 2 7 0 6.3 -0.2 7 -2 7 -3.5 0 -6.9 2.2 -8.5 5.5 -1.1 2.5 -1.5 6.8 -1.5 17.9 l0 14.6 -7.5 0 -7.5 0 0 -25.5z"/>
  <path d="M916 406.5 l0 -34.5 7.5 0 7.5 0 0 11 0 11.1 2.8 -2.1 c6 -4.4 16.3 -3.4 19.9 1.8 1.6 2.4 1.8 5.4 2.1 25 l0.3 22.2 -7 0 -7 0 -0.3 -19.5 c-0.3 -20.9 -0.5 -21.4 -5.5 -21.5 -4.9 0 -5.3 1.7 -5.3 22.1 l0 18.9 -7.5 0 -7.5 0 0 -34.5z"/>
  <path d="M1064 433.5 l0 -7.5 7 0 7 0 0 7.5 0 7.5 -7 0 -7 0 0 -7.5z"/>
  <path d="M1184 415.5 l0 -25.5 7 0 7 0 0 3.1 0 3.2 2 -2.5 c4.6 -6 14.5 -6.3 19.2 -0.8 2.6 3.2 2.6 3.2 3.8 1 2.4 -4.6 12.3 -6.4 18.1 -3.4 5.2 2.7 5.9 6 5.9 29.4 l0 21 -7 0 -7 0 0 -17.9 c0 -19.8 -0.6 -23.1 -4.4 -23.1 -4.9 0 -5.6 2.7 -5.6 22.7 l0 18.3 -7 0 -7 0 0 -17.9 c0 -19.8 -0.6 -23.1 -4.4 -23.1 -5.2 0 -5.6 1.5 -5.6 22.1 l0 18.9 -7.5 0 -7.5 0 0 -25.5z"/>
  <path d="M10.8 436.9 c-2.3 -1.2 -4.6 -3.5 -5.8 -5.9 -2 -3.9 -2 -5.5 -2 -209.5 0 -204.1 0 -205.6 2 -209.5 1.3 -2.6 3.4 -4.7 6 -6 3.9 -2 5.6 -2 116 -2 l112 0 0 217.5 0 217.5 -112.2 0 c-109.8 -0.1 -112.4 -0.1 -116 -2.1z m129 -195.6 c2.8 -1.7 5.9 -4.8 7.7 -7.7 2.6 -4.3 3 -5.9 3 -12.1 0 -6.2 -0.4 -7.8 -3 -12.1 -1.9 -3 -4.9 -6 -7.9 -7.9 -4.3 -2.6 -5.9 -3 -12.1 -3 -6.2 0 -7.8 0.4 -12.1 3 -3 1.9 -6 4.9 -7.9 7.9 -2.6 4.3 -3 5.9 -3 12 0 5.9 0.4 7.9 2.8 11.8 6.7 11.4 21.3 15.1 32.5 8.1z"/>
  <path d="M273 416.5 l0 -22.5 130.5 0 130.5 0 0 22.5 0 22.5 -130.5 0 -130.5 0 0 -22.5z"/>
  <path d="M1274 416.7 l0 -22.3 4.2 -1.4 c2.7 -1 5 -2.7 6.5 -4.9 l2.3 -3.4 0 -163.1 c0 -161.8 0 -163.1 -2 -166.4 -1.1 -1.8 -3.6 -4 -5.5 -4.8 -3 -1.2 -59.4 -1.4 -417.5 -1.4 l-414 0 0 -22.5 0 -22.5 434.5 0 c433.6 0 434.6 0 438.5 2 2.6 1.3 4.7 3.4 6 6 2 3.9 2 5.4 2 209.5 0 204.1 0 205.6 -2 209.5 -1.3 2.6 -3.4 4.7 -6 6 -3.6 1.8 -5.8 2 -25.5 2 l-21.5 0 0 -22.3z"/>
  <path d="M646 379 l0 -7 7.5 0 7.5 0 0 7 0 7 -7.5 0 -7.5 0 0 -7z"/>
  <path d="M544.3 358.9 l-4.3 -1 0 -14.7 0 -14.7 10.2 0 c8.6 0 10.9 -0.3 13.8 -2 3.6 -2.2 8.5 -10.3 9.5 -16 0.4 -2.1 -5.3 -22.8 -19.4 -70.5 l-19.8 -67.5 19 -0.3 c10.4 -0.1 19.2 -0.1 19.4 0.2 0.2 0.2 4.5 18.8 9.4 41.2 4.9 22.4 9.1 41 9.3 41.2 0.5 0.4 0.9 -1.7 10.9 -48.3 l7.3 -34 16.7 -0.3 c9.2 -0.1 16.7 0 16.7 0.2 0 1.5 -44.4 149.6 -47 156.7 -5.9 16.3 -12.1 23.8 -23.2 28.1 -6.2 2.4 -21.8 3.3 -28.5 1.7z"/>
  <path d="M460.4 312.5 c-29.9 -6.5 -46.6 -38.4 -42.5 -80.9 2.1 -22.1 7.6 -36 18.6 -47.2 22.8 -23.2 65 -19.5 82.1 7.2 6.6 10.4 11.4 30.5 11.4 48.2 l0 8.2 -36.5 0 -36.5 0 0 5.8 c0.1 9.4 1.8 19.9 4 24.2 4.7 9.2 18.2 11.9 26.1 5.2 3.5 -2.9 7.9 -11.3 7.9 -15.2 0.1 -5.1 0.3 -5.2 18.1 -3.9 9 0.6 16.6 1.3 16.8 1.5 0.9 0.9 -3.5 14.4 -7 21.5 -4.6 9.1 -13.2 17.8 -21.3 21.5 -11.2 5.1 -28.2 6.8 -41.2 3.9z m33.3 -95 c-1 -11.7 -4.5 -18.2 -11.4 -21.1 -13 -5.6 -24.3 5.6 -24.3 24.1 l0 4.5 18.1 0 18.2 0 -0.6 -7.5z"/>
  <path d="M703.1 311.9 c-7.1 -2.3 -14.3 -8.5 -17.8 -15.4 l-2 -3.8 -3 7.4 c-1.7 4.1 -3.3 8.2 -3.6 9.2 -0.6 1.5 -2.1 1.7 -12.2 1.7 l-11.5 0 0 -94 0 -94 19 0 19 0 0 30 c0 16.5 0.2 30 0.5 30 0.3 0 2.3 -1.8 4.6 -4.1 2.3 -2.3 6.6 -5.3 9.8 -6.8 4.8 -2.2 7 -2.6 14.6 -2.6 8.2 0 9.7 0.3 15.7 3.3 15.5 7.6 24.6 23.2 27.9 48.1 1.3 10 0.7 38 -1.1 46.1 -6.7 31.5 -22.4 47 -47 46.9 -3.7 0 -9.3 -0.9 -12.9 -2z m11.6 -26.9 c7.2 -4.3 9.3 -12.2 10 -36.6 0.8 -28 -1.6 -43 -7.8 -49 -2.6 -2.5 -3.8 -2.9 -8.7 -2.9 -7.4 0 -11.1 2.6 -14.2 9.7 -2 4.6 -2.3 7.4 -2.7 24.3 -0.6 22.9 0.8 41.6 3.6 48 3.5 7.9 12.6 10.9 19.8 6.5z"/>
  <path d="M823 312.4 c-14 -3 -26.4 -12.3 -32.5 -24.4 -9.1 -17.9 -11.7 -52.8 -5.8 -76.8 6.7 -27.6 25.1 -42.2 53.3 -42.2 27.9 0 45.5 13.8 53.2 41.7 2 7 2.2 10.3 2.2 30.8 0 25.6 -1 31.6 -7.5 45.3 -4 8.3 -13.2 17.8 -20.9 21.5 -11.1 5.4 -28.3 7.1 -42 4.1z m21.8 -27.4 c7 -4.3 9.2 -14.7 9.2 -43.5 0 -28.8 -2.2 -39.2 -9.2 -43.5 -8.6 -5.2 -17.5 -0.3 -21 11.4 -3 10.5 -2.6 55.1 0.6 66.1 1.5 4.8 5.3 9.6 8.6 10.8 3.3 1.2 8.7 0.6 11.8 -1.3z"/>
  <path d="M938 312.5 c-15.5 -4.4 -23.7 -15.5 -24.7 -33.5 -0.9 -15.2 3.6 -27.9 12.7 -36.4 9.4 -8.8 22.4 -13.4 45.9 -16.3 l13.3 -1.7 -0.7 -9 c-0.9 -11.6 -2.6 -15.9 -7.2 -18.1 -4.4 -2.1 -11.4 -1.5 -15.2 1.2 -3.4 2.5 -7.1 9.8 -7.1 14.1 l0 3.5 -4.2 -0.6 c-2.4 -0.3 -10.7 -1.1 -18.5 -1.8 -16 -1.4 -15.2 -0.9 -12.9 -9.4 4.1 -15.3 15.4 -26.7 32.4 -32.3 6.7 -2.2 9.5 -2.5 21.7 -2.6 11.8 -0.1 15.1 0.2 21 2.1 8.3 2.6 16.6 8.2 21.2 14.1 6.5 8.5 6.5 9.2 7.3 66.7 0.5 31.3 1.2 53.3 1.8 55.3 l1.1 3.2 -17.9 0 c-11.7 0 -18.1 -0.4 -18.5 -1.1 -0.4 -0.6 -1 -5.1 -1.4 -10.2 l-0.6 -9.1 -2.8 4.3 c-4.4 6.6 -10.7 12.2 -17.5 15.4 -7.9 3.7 -20.4 4.6 -29.2 2.2z m33.8 -24.9 c7.7 -4 11 -11.6 12.5 -28.7 0.6 -7.1 0.8 -13.1 0.5 -13.5 -0.4 -0.3 -4.1 0.1 -8.4 1 -16.6 3.5 -22.7 10 -22.8 24.4 0 12.1 4 18.1 12.2 18.2 1.8 0 4.5 -0.6 6 -1.4z"/>
  <path d="M1169.7 313 c-15.3 -3.9 -25.9 -17.7 -31.3 -40.6 -3.9 -17.2 -3.7 -47.1 0.6 -64.1 5.9 -23 20.1 -37.4 38.7 -39 12.6 -1 23 2.8 28.8 10.7 l2.5 3.4 0 -30.2 0 -30.2 19 0 19 0 0 94 0 94 -17.5 0 -17.4 0 -0.3 -10.7 -0.3 -10.8 -2.8 5.7 c-3.5 7.1 -9.6 13.4 -15.5 16.1 -5.3 2.3 -17.4 3.2 -23.5 1.7z m31.7 -29.3 c6.5 -5 7.1 -8.3 7.1 -41.7 0 -32.8 -0.5 -36.2 -5.9 -41.6 -6.1 -6.1 -16.7 -5.4 -21.2 1.4 -3.7 5.4 -4.5 11.5 -5.1 35.2 -0.7 31.7 1.5 43.4 9.1 48.2 4.3 2.7 11.3 2 16 -1.5z"/>
  <path d="M281 217 l0 -94 20.5 0 20.5 0 0.2 38.9 0.3 38.9 22.5 -38.9 22.5 -38.8 20.8 -0.1 c11.4 0 20.7 0.2 20.7 0.4 0 0.2 -10.3 15.6 -23 34.1 -12.6 18.5 -23 34.2 -23 34.9 0 0.7 11 26.8 24.5 58.1 13.4 31.2 24.7 57.6 25.1 58.7 0.5 1.8 -0.3 1.8 -20.7 1.6 l-21.3 -0.3 -16.2 -42.3 c-8.9 -23.3 -16.4 -42.5 -16.6 -42.8 -0.3 -0.2 -4 4.6 -8.2 10.8 l-7.6 11.3 0 31.8 0 31.7 -20.5 0 -20.5 0 0 -94z"/>
  <path d="M1052 241.5 l0 -69.5 17 0 17 0 0 15.7 c0 8.6 0.4 15.3 0.8 14.8 0.4 -0.6 1.4 -2.8 2.1 -5 4 -12.1 10.1 -20.6 17.9 -25.2 3.7 -2.2 5.8 -2.7 11.6 -2.7 l7.1 -0.1 0.3 19 0.2 19 -7.2 0.1 c-15.5 0.1 -23.9 9.4 -26.7 29.8 -0.6 4.3 -1.1 22.6 -1.1 40.7 l0 32.9 -19.5 0 -19.5 0 0 -69.5z"/>
  <path d="M389.5 73.1 c-8.8 -3.9 -13.2 -13.7 -12.2 -27.1 0.8 -11.7 4.7 -18.7 12.1 -22.1 8.1 -3.7 18.4 -1.5 23.9 5 2.9 3.5 4.2 7.5 5.2 16.4 l0.7 5.7 -13.6 0 -13.6 0 0 4.4 c0 8 6.3 12.3 11 7.6 1.1 -1.1 2.2 -3.1 2.6 -4.5 0.5 -2.1 1.2 -2.5 4.3 -2.4 2 0.1 4.8 0.4 6.3 0.8 2.6 0.6 2.6 0.6 1.3 4.5 -2 5.8 -4.6 8.8 -9.5 11.4 -5.5 2.7 -12.9 2.9 -18.5 0.3z m15.5 -33.6 c0 -6.3 -6.5 -9.9 -10.4 -5.6 -0.9 1 -2 3.5 -2.3 5.5 l-0.6 3.6 6.7 0 6.6 0 0 -3.5z"/>
  <path d="M295 46 l0 -28 -7 0 -7 0 0 -6.5 0 -6.5 21.5 0 21.5 0 0 6.5 0 6.5 -7 0 -7 0 0 28 0 28 -7.5 0 -7.5 0 0 -28z"/>
  <path d="M329 39.5 l0 -34.5 7.5 0 7.5 0 0 11 0 11.1 2.8 -2.1 c6 -4.4 16.3 -3.4 19.9 1.8 1.6 2.4 1.8 5.4 2.1 25 l0.3 22.2 -7 0 -7 0 -0.3 -19.5 c-0.3 -20.9 -0.5 -21.4 -5.5 -21.5 -4.9 0 -5.3 1.7 -5.3 22.1 l0 18.9 -7.5 0 -7.5 0 0 -34.5z"/>
 </g>
</svg>